<svg width="40" height="50" viewBox="0 0 40 50" fill="none" xmlns="http://www.w3.org/2000/svg">
<path d="M12.2628 38.5863C11.3063 38.5863 10.4157 38.1574 9.81953 37.4096L7.72656 34.7852L5.88516 33.8984L1.07744 43.5682C0.959005 43.8065 0.903354 44.071 0.915763 44.3367C0.928173 44.6025 1.00823 44.8607 1.14835 45.0868C1.28847 45.3129 1.48402 45.4996 1.71645 45.629C1.94889 45.7584 2.21052 45.8263 2.47656 45.8263H2.48008L6.93965 45.8163L9.62334 49.3779C9.78361 49.5906 9.9956 49.7589 10.2392 49.8666C10.4828 49.9743 10.7498 50.018 11.015 49.9934C11.2802 49.9689 11.5348 49.877 11.7545 49.7265C11.9742 49.5759 12.1517 49.3717 12.2703 49.1332L17.148 39.3224L15.6195 38.5863H12.2628ZM38.9225 43.5681L34.1147 33.8983L32.2733 34.7851L30.1804 37.4096C29.5842 38.1573 28.6937 38.5862 27.7371 38.5862H24.3803L22.8518 39.3223L27.7295 49.1331C27.859 49.3935 28.0586 49.6125 28.3058 49.7657C28.553 49.9188 28.838 50 29.1288 50C29.6164 50 30.0797 49.7717 30.3765 49.3778L33.0602 45.8162L37.5197 45.8262H37.5232C37.7893 45.8263 38.051 45.7584 38.2834 45.629C38.5159 45.4996 38.7115 45.313 38.8516 45.0868C38.9917 44.8606 39.0718 44.6024 39.0842 44.3367C39.0966 44.0709 39.041 43.8064 38.9225 43.5681Z" fill="url(#paint0_linear_23187_786)"/>
<path d="M27.7368 37.0238C28.2123 37.0238 28.662 36.8073 28.9584 36.4355L31.2737 33.5322L34.6194 31.921C34.8309 31.8191 35.0167 31.671 35.1631 31.4874C35.3094 31.3039 35.4125 31.0898 35.4648 30.8609L36.2912 27.2405L38.6065 24.3372C38.7529 24.1537 38.856 23.9396 38.9082 23.7107C38.9604 23.4819 38.9604 23.2442 38.9082 23.0153L38.0819 19.395L38.9082 15.7746C38.9604 15.5458 38.9604 15.3081 38.9082 15.0792C38.8559 14.8503 38.7528 14.6362 38.6065 14.4526L36.2912 11.5494L35.4648 7.92901C35.4126 7.70016 35.3094 7.48602 35.1631 7.3025C35.0167 7.11898 34.8309 6.97079 34.6194 6.86895L31.2737 5.25772L28.9584 2.3544C28.812 2.17088 28.6262 2.02269 28.4147 1.92085C28.2032 1.81901 27.9715 1.76612 27.7368 1.76611H24.0233L20.6775 0.154689C20.466 0.0528712 20.2343 0 19.9995 0C19.7648 0 19.533 0.0528712 19.3215 0.154689L15.9758 1.76592H12.2624C12.0276 1.76591 11.7959 1.81879 11.5844 1.92064C11.3729 2.02248 11.1871 2.17067 11.0408 2.3542L8.72544 5.25752L5.37974 6.86875C5.16825 6.97061 4.98243 7.1188 4.83607 7.30231C4.68971 7.48583 4.58658 7.69997 4.53433 7.92881L3.70796 11.5492L1.39263 14.4524C1.24626 14.636 1.14314 14.8501 1.09091 15.079C1.03869 15.3079 1.03871 15.5456 1.09097 15.7744L1.91724 19.3948L1.09097 23.0151C1.03873 23.244 1.03872 23.4817 1.09095 23.7105C1.14317 23.9393 1.24628 24.1535 1.39263 24.337L3.70796 27.2403L4.53433 30.8607C4.58657 31.0896 4.6897 31.3037 4.83606 31.4873C4.98242 31.6708 5.16824 31.819 5.37974 31.9208L8.72544 33.532L11.0408 36.4354C11.1871 36.6189 11.3729 36.7671 11.5844 36.8689C11.7959 36.9707 12.0276 37.0236 12.2624 37.0236H15.9758L19.3215 38.6349C19.533 38.7367 19.7647 38.7896 19.9995 38.7896C20.2342 38.7896 20.4659 38.7367 20.6774 38.6349L24.0231 37.0236H27.7366L27.7368 37.0238ZM19.9996 33.0668C12.4609 33.0668 6.32769 26.9336 6.32769 19.3949C6.32769 11.8563 12.4609 5.72305 19.9996 5.72305C27.5382 5.72305 33.6714 11.8563 33.6714 19.3949C33.6714 26.9336 27.5382 33.0668 19.9996 33.0668Z" fill="url(#paint1_linear_23187_786)"/>
<path d="M20 7.28552C13.3229 7.28552 7.89062 12.7177 7.89062 19.3949C7.89062 26.072 13.3229 31.5043 20 31.5043C26.6771 31.5043 32.1094 26.072 32.1094 19.3949C32.1094 12.7177 26.6771 7.28552 20 7.28552ZM20.3235 22.9799C20.1785 23.1251 20.0062 23.2403 19.8166 23.3189C19.6269 23.3974 19.4236 23.4378 19.2184 23.4376C18.8636 23.4379 18.5194 23.3171 18.2427 23.0952L14.3364 19.9702L16.2886 17.5301L19.1027 19.7814L23.5826 15.3015L25.7923 17.5112L20.3235 22.98V22.9799Z" fill="url(#paint2_linear_23187_786)"/>
<defs>
<linearGradient id="paint0_linear_23187_786" x1="-23.8063" y1="34.4225" x2="-22.3511" y2="54.3373" gradientUnits="userSpaceOnUse">
<stop offset="0.01" stop-color="#FBC01B"/>
<stop offset="0.25" stop-color="#FFF5A8"/>
<stop offset="0.32" stop-color="#F8E997"/>
<stop offset="0.44" stop-color="#E7CA6A"/>
<stop offset="0.61" stop-color="#CA9922"/>
<stop offset="0.69" stop-color="#BD8100"/>
<stop offset="1" stop-color="#FFF5A8"/>
</linearGradient>
<linearGradient id="paint1_linear_23187_786" x1="-23.4897" y1="1.26285" x2="-15.1984" y2="48.0239" gradientUnits="userSpaceOnUse">
<stop offset="0.01" stop-color="#FBC01B"/>
<stop offset="0.25" stop-color="#FFF5A8"/>
<stop offset="0.32" stop-color="#F8E997"/>
<stop offset="0.44" stop-color="#E7CA6A"/>
<stop offset="0.61" stop-color="#CA9922"/>
<stop offset="0.69" stop-color="#BD8100"/>
<stop offset="1" stop-color="#FFF5A8"/>
</linearGradient>
<linearGradient id="paint2_linear_23187_786" x1="-7.79362" y1="8.074" x2="-2.72909" y2="37.3105" gradientUnits="userSpaceOnUse">
<stop offset="0.01" stop-color="#FBC01B"/>
<stop offset="0.25" stop-color="#FFF5A8"/>
<stop offset="0.32" stop-color="#F8E997"/>
<stop offset="0.44" stop-color="#E7CA6A"/>
<stop offset="0.61" stop-color="#CA9922"/>
<stop offset="0.69" stop-color="#BD8100"/>
<stop offset="1" stop-color="#FFF5A8"/>
</linearGradient>
</defs>
</svg>
