<svg width="22" height="23" viewBox="0 0 22 23" fill="none" xmlns="http://www.w3.org/2000/svg">
<g clip-path="url(#clip0_23187_506)">
<path d="M1.83669 20.6667L3.07602 16.1127C2.2594 14.7128 1.83036 13.1207 1.83302 11.5C1.83302 6.43725 5.93694 2.33334 10.9997 2.33334C16.0624 2.33334 20.1664 6.43725 20.1664 11.5C20.1664 16.5628 16.0624 20.6667 10.9997 20.6667C9.37973 20.6693 7.78829 20.2406 6.38885 19.4246L1.83669 20.6667ZM7.69144 7.199C7.57306 7.20635 7.45739 7.23753 7.35135 7.29067C7.25191 7.34698 7.16114 7.41738 7.08185 7.49967C6.97185 7.60325 6.90952 7.69309 6.8426 7.78017C6.50381 8.22108 6.32158 8.7623 6.32469 9.31834C6.32652 9.7675 6.44385 10.2048 6.62719 10.6136C7.0021 11.4404 7.61902 12.3158 8.43394 13.1271C8.6301 13.3223 8.82169 13.5185 9.02794 13.7009C10.0394 14.5914 11.2447 15.2336 12.5479 15.5764L13.0695 15.6562C13.2391 15.6653 13.4087 15.6525 13.5792 15.6443C13.8462 15.6305 14.1068 15.5582 14.3428 15.4325C14.4949 15.3518 14.5664 15.3115 14.6939 15.2308C14.6939 15.2308 14.7333 15.2052 14.8084 15.1483C14.9322 15.0567 15.0083 14.9916 15.1109 14.8843C15.187 14.8055 15.253 14.7129 15.3034 14.6075C15.3749 14.4581 15.4464 14.173 15.4758 13.9356C15.4978 13.7541 15.4914 13.6551 15.4886 13.5937C15.4849 13.4956 15.4034 13.3938 15.3144 13.3508L14.7809 13.1115C14.7809 13.1115 13.9834 12.7641 13.4967 12.5423C13.4454 12.5199 13.3904 12.5071 13.3344 12.5047C13.2717 12.4982 13.2083 12.5053 13.1486 12.5254C13.0888 12.5454 13.034 12.5781 12.9879 12.6211V12.6193C12.9834 12.6193 12.9219 12.6715 12.2592 13.4745C12.2211 13.5256 12.1687 13.5642 12.1087 13.5855C12.0486 13.6067 11.9836 13.6095 11.9219 13.5937C11.8621 13.5777 11.8036 13.5575 11.7468 13.5332C11.6331 13.4855 11.5937 13.4672 11.5158 13.4333L11.5112 13.4314C10.9868 13.2025 10.5012 12.8932 10.072 12.5148C9.95652 12.4139 9.84927 12.3039 9.73927 12.1976C9.37863 11.8522 9.06434 11.4615 8.80427 11.0353L8.75019 10.9482C8.71134 10.8897 8.67993 10.8265 8.65669 10.7603C8.62185 10.6255 8.7126 10.5173 8.7126 10.5173C8.7126 10.5173 8.93535 10.2735 9.03894 10.1415C9.12519 10.0318 9.20566 9.91767 9.28002 9.79959C9.38819 9.62542 9.4221 9.44667 9.36527 9.30825C9.1086 8.68125 8.84277 8.057 8.5696 7.43734C8.51552 7.3145 8.3551 7.2265 8.20935 7.20909C8.15985 7.20359 8.11035 7.19809 8.06085 7.19442C7.93775 7.1883 7.81439 7.18953 7.69144 7.19809V7.199Z" fill="#EED266"/>
</g>
<defs>
<clipPath id="clip0_23187_506">
<rect width="22" height="22" fill="white" transform="translate(0 0.5)"/>
</clipPath>
</defs>
</svg>
