<svg width="44" height="48" viewBox="0 0 44 48" fill="none" xmlns="http://www.w3.org/2000/svg">
<path d="M43.8524 10.5184V40.2573C43.8524 40.9897 43.2539 41.5875 42.5215 41.5875H40.773L19.3502 20.1573C19.1147 19.9195 18.8342 19.7309 18.525 19.6027C18.2158 19.4744 17.8842 19.409 17.5495 19.4103C16.871 19.4099 16.2201 19.6787 15.7397 20.1578C15.2592 20.6369 14.9885 21.287 14.987 21.9654V41.5882H5.63916C3.62887 41.5882 1.84358 40.1162 1.65681 38.1213C1.60634 37.5895 1.66749 37.0529 1.83636 36.5461C2.00523 36.0392 2.2781 35.5732 2.63748 35.1779C2.99687 34.7826 3.43485 34.4667 3.92337 34.2504C4.4119 34.0342 4.94021 33.9223 5.47446 33.9221C5.97797 33.9217 6.47662 34.0205 6.94189 34.213C7.40715 34.4055 7.82991 34.6878 8.18598 35.0438C8.54205 35.3998 8.82445 35.8225 9.01703 36.2878C9.2096 36.753 9.30857 37.2516 9.30828 37.7551V9.18896H42.5215C43.2539 9.18896 43.8524 9.78676 43.8524 10.5191V10.5184Z" fill="url(#paint0_linear_23187_811)"/>
<path d="M16.4813 21.9647V46.1008C16.4813 46.6868 16.9563 47.1618 17.5423 47.1618H41.6717C42.6173 47.1618 43.0908 46.0191 42.4217 45.3508L18.2938 21.2147C17.6247 20.5456 16.4813 21.0191 16.4813 21.9647ZM21.4056 42.2302V31.2985L32.3379 42.2302H21.4056ZM7.81364 8.80737V32.9647C7.08504 32.6106 6.28552 32.4265 5.4754 32.4265C2.6732 32.4265 0.364373 34.6088 0.16952 37.3581C0.154814 37.4927 0.147461 37.6199 0.147461 37.7544V8.80737C0.14824 7.79102 0.552332 6.81651 1.27101 6.09783C1.98968 5.37916 2.96419 4.97507 3.98055 4.97429C4.99691 4.97507 5.97142 5.37916 6.69009 6.09783C7.40877 6.81651 7.81286 7.79102 7.81364 8.80737ZM20.7776 0.841933H34.7283V7.34267H20.7776V0.841933ZM19.282 7.34193L14.1533 4.68458C14.0445 4.62817 13.9532 4.54292 13.8895 4.43814C13.8257 4.33337 13.792 4.21309 13.792 4.09046C13.792 3.96783 13.8257 3.84756 13.8895 3.74278C13.9532 3.63801 14.0445 3.55276 14.1533 3.49634L19.2813 0.838257L19.282 7.34193ZM38.6467 7.34193H36.2239V0.838257H38.6467C40.1938 3.0059 40.1938 5.17429 38.6467 7.34193Z" fill="url(#paint1_linear_23187_811)"/>
<defs>
<linearGradient id="paint0_linear_23187_811" x1="-25.6976" y1="10.2438" x2="-20.4345" y2="49.8295" gradientUnits="userSpaceOnUse">
<stop offset="0.01" stop-color="#FBC01B"/>
<stop offset="0.25" stop-color="#FFF5A8"/>
<stop offset="0.32" stop-color="#F8E997"/>
<stop offset="0.44" stop-color="#E7CA6A"/>
<stop offset="0.61" stop-color="#CA9922"/>
<stop offset="0.69" stop-color="#BD8100"/>
<stop offset="1" stop-color="#FFF5A8"/>
</linearGradient>
<linearGradient id="paint1_linear_23187_811" x1="-27.4326" y1="2.34639" x2="-16.9517" y2="57.9706" gradientUnits="userSpaceOnUse">
<stop offset="0.01" stop-color="#FBC01B"/>
<stop offset="0.25" stop-color="#FFF5A8"/>
<stop offset="0.32" stop-color="#F8E997"/>
<stop offset="0.44" stop-color="#E7CA6A"/>
<stop offset="0.61" stop-color="#CA9922"/>
<stop offset="0.69" stop-color="#BD8100"/>
<stop offset="1" stop-color="#FFF5A8"/>
</linearGradient>
</defs>
</svg>
