<svg width="20" height="15" viewBox="0 0 20 15" fill="none" xmlns="http://www.w3.org/2000/svg">
<path d="M0.126148 14.0601V4.52006H1.90815L6.01215 11.5761H5.29215L9.50415 4.52006H11.1241V14.0601H9.55815V6.46406L9.84615 6.62606L5.99415 12.9801H5.23815L1.36815 6.50006L1.71015 6.42806V14.0601H0.126148ZM13.6415 8.17406V7.36406L16.9715 4.44806C17.4035 4.05206 17.6915 3.74006 17.8355 3.51206C17.9795 3.27206 18.0515 3.04406 18.0515 2.82806C18.0515 2.51606 17.9075 2.25206 17.6195 2.03606C17.3315 1.80806 16.8755 1.69406 16.2515 1.69406C15.8195 1.69406 15.4235 1.76606 15.0635 1.91006C14.7155 2.04206 14.4275 2.24006 14.1995 2.50406L13.3175 1.82006C13.6295 1.43606 14.0375 1.14206 14.5415 0.938058C15.0575 0.722058 15.6575 0.614058 16.3415 0.614058C17.3135 0.614058 18.0515 0.818058 18.5555 1.22606C19.0595 1.63406 19.3115 2.13806 19.3115 2.73806C19.3115 3.09806 19.2215 3.44606 19.0415 3.78206C18.8735 4.11806 18.5015 4.53806 17.9255 5.04206L15.0095 7.59806L14.6675 7.13006H19.6535V8.17406H13.6415Z" fill="#A1ABB9"/>
</svg>
